<svg xmlns="http://www.w3.org/2000/svg" width="580.0" height="1830" viewBox="0 0 580.0 1830">
  <defs>
    <marker id="arrowhead" markerWidth="10" markerHeight="7"
            refX="9" refY="3.5" orient="auto" fill="#6B7280">
      <polygon points="0 0, 10 3.5, 0 7"/>
    </marker>
  </defs>
  <rect width="580.0" height="1830" fill="white"/>
  <text x="290.0" y="35" text-anchor="middle" font-family="'Microsoft YaHei', 'SimSun', 'PingFang SC', 'Noto Sans CJK SC', sans-serif" font-size="20" font-weight="bold" fill="#111827">基于深度学习的图像分类研究流程</text>
  <path d="M400.0,110 L400.0,190" fill="none" stroke="#6B7280" stroke-width="1.8" marker-end="url(#arrowhead)"/>
  <path d="M400.0,250 L400.0,330" fill="none" stroke="#6B7280" stroke-width="1.8" marker-end="url(#arrowhead)"/>
  <path d="M400.0,390 L400.0,470" fill="none" stroke="#6B7280" stroke-width="1.8" marker-end="url(#arrowhead)"/>
  <path d="M400.0,530 L400.0,610" fill="none" stroke="#6B7280" stroke-width="1.8" marker-end="url(#arrowhead)"/>
  <path d="M400.0,710 L400.0,790" fill="none" stroke="#6B7280" stroke-width="1.8" marker-end="url(#arrowhead)"/>
  <rect x="397.0" y="738.0" width="30" height="18" rx="3" fill="white" stroke="#D1D5DB" stroke-width="0.5"/>
  <text x="412.0" y="752.0" text-anchor="middle" font-family="'Microsoft YaHei', 'SimSun', 'PingFang SC', 'Noto Sans CJK SC', sans-serif" font-size="11" fill="#6B7280">是</text>
  <path d="M480.0,660.0 L640.0,660.0 L640.0,360.0 L500.0,360.0" fill="none" stroke="#6B7280" stroke-width="1.8" stroke-dasharray="6,4" marker-end="url(#arrowhead)"/>
  <rect x="397.0" y="488.0" width="30" height="18" rx="3" fill="white" stroke="#D1D5DB" stroke-width="0.5"/>
  <text x="412.0" y="502.0" text-anchor="middle" font-family="'Microsoft YaHei', 'SimSun', 'PingFang SC', 'Noto Sans CJK SC', sans-serif" font-size="11" fill="#6B7280">否</text>
  <path d="M400.0,850 L400.0,930" fill="none" stroke="#6B7280" stroke-width="1.8" marker-end="url(#arrowhead)"/>
  <path d="M400.0,990 L400.0,1070" fill="none" stroke="#6B7280" stroke-width="1.8" marker-end="url(#arrowhead)"/>
  <path d="M400.0,1170 L400.0,1250" fill="none" stroke="#6B7280" stroke-width="1.8" marker-end="url(#arrowhead)"/>
  <rect x="397.0" y="1198.0" width="30" height="18" rx="3" fill="white" stroke="#D1D5DB" stroke-width="0.5"/>
  <text x="412.0" y="1212.0" text-anchor="middle" font-family="'Microsoft YaHei', 'SimSun', 'PingFang SC', 'Noto Sans CJK SC', sans-serif" font-size="11" fill="#6B7280">否</text>
  <path d="M400.0,1170 L400.0,1530" fill="none" stroke="#6B7280" stroke-width="1.8" marker-end="url(#arrowhead)"/>
  <rect x="397.0" y="1338.0" width="30" height="18" rx="3" fill="white" stroke="#D1D5DB" stroke-width="0.5"/>
  <text x="412.0" y="1352.0" text-anchor="middle" font-family="'Microsoft YaHei', 'SimSun', 'PingFang SC', 'Noto Sans CJK SC', sans-serif" font-size="11" fill="#6B7280">是</text>
  <path d="M400.0,1310 L400.0,1390" fill="none" stroke="#6B7280" stroke-width="1.8" marker-end="url(#arrowhead)"/>
  <path d="M500.0,1420.0 L640.0,1420.0 L640.0,960.0 L500.0,960.0" fill="none" stroke="#6B7280" stroke-width="1.8" stroke-dasharray="6,4" marker-end="url(#arrowhead)"/>
  <rect x="392.0" y="1178.0" width="40" height="18" rx="3" fill="white" stroke="#D1D5DB" stroke-width="0.5"/>
  <text x="412.0" y="1192.0" text-anchor="middle" font-family="'Microsoft YaHei', 'SimSun', 'PingFang SC', 'Noto Sans CJK SC', sans-serif" font-size="11" fill="#6B7280">调整</text>
  <path d="M400.0,1590 L400.0,1670" fill="none" stroke="#6B7280" stroke-width="1.8" marker-end="url(#arrowhead)"/>
  <rect x="330.0" y="60" width="140" height="50" rx="25.0" ry="25.0" fill="#F3F4F6" stroke="#6B7280" stroke-width="2"/>
  <text x="400.0" y="89.9" text-anchor="middle" dominant-baseline="auto" font-family="'Microsoft YaHei', 'SimSun', 'PingFang SC', 'Noto Sans CJK SC', sans-serif" font-size="14" fill="#1F2937">开始</text>
  <polygon points="320.0,190 500.0,190 480.0,250 300.0,250" fill="#CFFAFE" stroke="#06B6D4" stroke-width="2"/>
  <text x="400.0" y="224.9" text-anchor="middle" dominant-baseline="auto" font-family="'Microsoft YaHei', 'SimSun', 'PingFang SC', 'Noto Sans CJK SC', sans-serif" font-size="14" fill="#1F2937">CIFAR-10 数据集加载</text>
  <rect x="300.0" y="330" width="200" height="60" rx="6" ry="6" fill="#DBEAFE" stroke="#3B82F6" stroke-width="2"/>
  <text x="400.0" y="355.8" text-anchor="middle" dominant-baseline="auto" font-family="'Microsoft YaHei', 'SimSun', 'PingFang SC', 'Noto Sans CJK SC', sans-serif" font-size="14" fill="#1F2937">数据增强</text>
  <text x="400.0" y="374.0" text-anchor="middle" dominant-baseline="auto" font-family="'Microsoft YaHei', 'SimSun', 'PingFang SC', 'Noto Sans CJK SC', sans-serif" font-size="14" fill="#1F2937">(旋转/翻转/裁剪)</text>
  <rect x="300.0" y="470" width="200" height="60" rx="6" ry="6" fill="#EDE9FE" stroke="#8B5CF6" stroke-width="2"/>
  <text x="400.0" y="504.9" text-anchor="middle" dominant-baseline="auto" font-family="'Microsoft YaHei', 'SimSun', 'PingFang SC', 'Noto Sans CJK SC', sans-serif" font-size="14" fill="#1F2937">归一化与标准化</text>
  <polygon points="400.0,610 480.0,660.0 400.0,710 320.0,660.0" fill="#FEF3C7" stroke="#F59E0B" stroke-width="2"/>
  <text x="400.0" y="655.8" text-anchor="middle" dominant-baseline="auto" font-family="'Microsoft YaHei', 'SimSun', 'PingFang SC', 'Noto Sans CJK SC', sans-serif" font-size="14" fill="#1F2937">数据质量</text>
  <text x="400.0" y="674.0" text-anchor="middle" dominant-baseline="auto" font-family="'Microsoft YaHei', 'SimSun', 'PingFang SC', 'Noto Sans CJK SC', sans-serif" font-size="14" fill="#1F2937">检查通过？</text>
  <rect x="300.0" y="790" width="200" height="60" rx="6" ry="6" fill="#D1FAE5" stroke="#10B981" stroke-width="2"/>
  <text x="400.0" y="815.8" text-anchor="middle" dominant-baseline="auto" font-family="'Microsoft YaHei', 'SimSun', 'PingFang SC', 'Noto Sans CJK SC', sans-serif" font-size="14" fill="#1F2937">CNN 模型构建</text>
  <text x="400.0" y="834.0" text-anchor="middle" dominant-baseline="auto" font-family="'Microsoft YaHei', 'SimSun', 'PingFang SC', 'Noto Sans CJK SC', sans-serif" font-size="14" fill="#1F2937">(ResNet-50)</text>
  <rect x="300.0" y="930" width="200" height="60" rx="6" ry="6" fill="#D1FAE5" stroke="#10B981" stroke-width="2"/>
  <text x="400.0" y="955.8" text-anchor="middle" dominant-baseline="auto" font-family="'Microsoft YaHei', 'SimSun', 'PingFang SC', 'Noto Sans CJK SC', sans-serif" font-size="14" fill="#1F2937">模型训练</text>
  <text x="400.0" y="974.0" text-anchor="middle" dominant-baseline="auto" font-family="'Microsoft YaHei', 'SimSun', 'PingFang SC', 'Noto Sans CJK SC', sans-serif" font-size="14" fill="#1F2937">(Adam, lr=1e-3)</text>
  <polygon points="400.0,1070 480.0,1120.0 400.0,1170 320.0,1120.0" fill="#FEF3C7" stroke="#F59E0B" stroke-width="2"/>
  <text x="400.0" y="1115.8" text-anchor="middle" dominant-baseline="auto" font-family="'Microsoft YaHei', 'SimSun', 'PingFang SC', 'Noto Sans CJK SC', sans-serif" font-size="14" fill="#1F2937">准确率</text>
  <text x="400.0" y="1134.0" text-anchor="middle" dominant-baseline="auto" font-family="'Microsoft YaHei', 'SimSun', 'PingFang SC', 'Noto Sans CJK SC', sans-serif" font-size="14" fill="#1F2937">≥ 90%？</text>
  <rect x="300.0" y="1250" width="200" height="60" rx="4" ry="4" fill="#FEF9C3" stroke="#CA8A04" stroke-width="2"/>
  <rect x="306.0" y="1256" width="188" height="48" rx="2" ry="2" fill="none" stroke="#CA8A04" stroke-width="1"/>
  <text x="400.0" y="1284.9" text-anchor="middle" dominant-baseline="auto" font-family="'Microsoft YaHei', 'SimSun', 'PingFang SC', 'Noto Sans CJK SC', sans-serif" font-size="14" fill="#1F2937">5-折交叉验证</text>
  <rect x="300.0" y="1390" width="200" height="60" rx="6" ry="6" fill="#FFEDD5" stroke="#F97316" stroke-width="2"/>
  <text x="400.0" y="1424.9" text-anchor="middle" dominant-baseline="auto" font-family="'Microsoft YaHei', 'SimSun', 'PingFang SC', 'Noto Sans CJK SC', sans-serif" font-size="14" fill="#1F2937">混淆矩阵分析</text>
  <polygon points="300.0,1530 480.0,1530 500.0,1590 320.0,1590" fill="#CFFAFE" stroke="#06B6D4" stroke-width="2"/>
  <text x="400.0" y="1555.8" text-anchor="middle" dominant-baseline="auto" font-family="'Microsoft YaHei', 'SimSun', 'PingFang SC', 'Noto Sans CJK SC', sans-serif" font-size="14" fill="#1F2937">实验报告</text>
  <text x="400.0" y="1574.0" text-anchor="middle" dominant-baseline="auto" font-family="'Microsoft YaHei', 'SimSun', 'PingFang SC', 'Noto Sans CJK SC', sans-serif" font-size="14" fill="#1F2937">(准确率 93.2%)</text>
  <rect x="330.0" y="1670" width="140" height="50" rx="25.0" ry="25.0" fill="#F3F4F6" stroke="#6B7280" stroke-width="2"/>
  <text x="400.0" y="1699.9" text-anchor="middle" dominant-baseline="auto" font-family="'Microsoft YaHei', 'SimSun', 'PingFang SC', 'Noto Sans CJK SC', sans-serif" font-size="14" fill="#1F2937">结束</text>
  <rect x="30" y="1770" width="16" height="16" rx="3" fill="#D1FAE5" stroke="#10B981" stroke-width="1.5"/>
  <text x="52" y="1783" font-family="'Microsoft YaHei', 'SimSun', 'PingFang SC', 'Noto Sans CJK SC', sans-serif" font-size="12" fill="#4B5563">分析</text>
  <rect x="110" y="1770" width="16" height="16" rx="3" fill="#FEF3C7" stroke="#F59E0B" stroke-width="1.5"/>
  <text x="132" y="1783" font-family="'Microsoft YaHei', 'SimSun', 'PingFang SC', 'Noto Sans CJK SC', sans-serif" font-size="12" fill="#4B5563">判断</text>
  <rect x="190" y="1770" width="16" height="16" rx="3" fill="#DBEAFE" stroke="#3B82F6" stroke-width="1.5"/>
  <text x="212" y="1783" font-family="'Microsoft YaHei', 'SimSun', 'PingFang SC', 'Noto Sans CJK SC', sans-serif" font-size="12" fill="#4B5563">数据</text>
  <rect x="270" y="1770" width="16" height="16" rx="3" fill="#EDE9FE" stroke="#8B5CF6" stroke-width="1.5"/>
  <text x="292" y="1783" font-family="'Microsoft YaHei', 'SimSun', 'PingFang SC', 'Noto Sans CJK SC', sans-serif" font-size="12" fill="#4B5563">预处理</text>
  <rect x="350" y="1770" width="16" height="16" rx="3" fill="#FCE7F3" stroke="#EC4899" stroke-width="1.5"/>
  <text x="372" y="1783" font-family="'Microsoft YaHei', 'SimSun', 'PingFang SC', 'Noto Sans CJK SC', sans-serif" font-size="12" fill="#4B5563">结果</text>
  <rect x="430" y="1770" width="16" height="16" rx="3" fill="#FFEDD5" stroke="#F97316" stroke-width="1.5"/>
  <text x="452" y="1783" font-family="'Microsoft YaHei', 'SimSun', 'PingFang SC', 'Noto Sans CJK SC', sans-serif" font-size="12" fill="#4B5563">验证</text>
</svg>